<mxfile host="app.diagrams.net" modified="2023-09-10T11:55:23.825Z" agent="Mozilla/5.0 (X11; Ubuntu; Linux x86_64; rv:109.0) Gecko/20100101 Firefox/117.0" etag="l8H7tNWkOg_hKJfWNXEJ" version="21.7.4" type="device">
  <diagram name="Page-1" id="t8EBofVP_OuaEtbaf1JJ">
    <mxGraphModel dx="1184" dy="640" grid="1" gridSize="10" guides="1" tooltips="1" connect="1" arrows="1" fold="1" page="1" pageScale="1" pageWidth="850" pageHeight="1100" background="none" math="0" shadow="0">
      <root>
        <mxCell id="0" />
        <mxCell id="1" parent="0" />
        <mxCell id="XMLDcqwSQ4G91imM18Sd-209" value="" style="rounded=0;whiteSpace=wrap;html=1;fillColor=#f5f5f5;labelBackgroundColor=none;fontColor=#333333;strokeColor=#666666;" vertex="1" parent="1">
          <mxGeometry x="0.5" y="910" width="320" height="420" as="geometry" />
        </mxCell>
        <mxCell id="XMLDcqwSQ4G91imM18Sd-9" value="" style="rounded=0;whiteSpace=wrap;html=1;fillColor=#f5f5f5;labelBackgroundColor=none;fontColor=#333333;strokeColor=#666666;" vertex="1" parent="1">
          <mxGeometry width="320" height="320" as="geometry" />
        </mxCell>
        <mxCell id="XMLDcqwSQ4G91imM18Sd-2" value="&lt;div style=&quot;font-size: 22px;&quot;&gt;&lt;font style=&quot;font-size: 22px;&quot;&gt;&lt;span style=&quot;font-size: 22px;&quot;&gt;&lt;u&gt;&amp;nbsp;Maria Montessori&amp;nbsp;&amp;nbsp;&amp;nbsp;&amp;nbsp;&amp;nbsp;&amp;nbsp;&amp;nbsp;&amp;nbsp;&amp;nbsp; &lt;/u&gt;_&lt;br&gt;&amp;nbsp;Gesamtschule Aachen&lt;/span&gt;&lt;/font&gt;&lt;br style=&quot;font-size: 22px;&quot;&gt;&lt;/div&gt;" style="text;html=1;strokeColor=default;fillColor=#9AC7BF;align=left;verticalAlign=middle;whiteSpace=wrap;rounded=0;fontSize=22;fontStyle=1;fontColor=#FFFFFF;" vertex="1" parent="1">
          <mxGeometry width="320" height="80" as="geometry" />
        </mxCell>
        <mxCell id="XMLDcqwSQ4G91imM18Sd-3" value="" style="rounded=0;whiteSpace=wrap;html=1;shadow=1;fillColor=#dae8fc;strokeColor=#6c8ebf;" vertex="1" parent="1">
          <mxGeometry x="40" y="90" width="240" height="190" as="geometry" />
        </mxCell>
        <mxCell id="XMLDcqwSQ4G91imM18Sd-4" value="Email" style="text;html=1;strokeColor=none;fillColor=none;align=left;verticalAlign=middle;whiteSpace=wrap;rounded=0;fontSize=16;" vertex="1" parent="1">
          <mxGeometry x="55" y="100" width="60" height="30" as="geometry" />
        </mxCell>
        <mxCell id="XMLDcqwSQ4G91imM18Sd-5" value="" style="rounded=0;whiteSpace=wrap;html=1;" vertex="1" parent="1">
          <mxGeometry x="50" y="130" width="220" height="30" as="geometry" />
        </mxCell>
        <mxCell id="XMLDcqwSQ4G91imM18Sd-6" value="Passwort" style="text;html=1;strokeColor=none;fillColor=none;align=left;verticalAlign=middle;whiteSpace=wrap;rounded=0;fontSize=16;" vertex="1" parent="1">
          <mxGeometry x="51" y="170" width="130" height="30" as="geometry" />
        </mxCell>
        <mxCell id="XMLDcqwSQ4G91imM18Sd-7" value="" style="rounded=0;whiteSpace=wrap;html=1;" vertex="1" parent="1">
          <mxGeometry x="50" y="200" width="220" height="30" as="geometry" />
        </mxCell>
        <mxCell id="XMLDcqwSQ4G91imM18Sd-8" value="Anmelden" style="rounded=1;whiteSpace=wrap;html=1;fontSize=14;fontStyle=1" vertex="1" parent="1">
          <mxGeometry x="115" y="240" width="90" height="30" as="geometry" />
        </mxCell>
        <mxCell id="XMLDcqwSQ4G91imM18Sd-10" value="Login Page" style="text;html=1;strokeColor=none;fillColor=none;align=left;verticalAlign=middle;whiteSpace=wrap;rounded=0;fontStyle=3;fontSize=14;" vertex="1" parent="1">
          <mxGeometry x="320" width="80" height="30" as="geometry" />
        </mxCell>
        <mxCell id="XMLDcqwSQ4G91imM18Sd-12" value="&lt;div style=&quot;font-size: 22px;&quot;&gt;&lt;font style=&quot;font-size: 22px;&quot;&gt;&lt;span style=&quot;font-size: 22px;&quot;&gt;&lt;u&gt;Maria Montessori&lt;/u&gt;_____&lt;br&gt;Gesamtschule Aachen&lt;/span&gt;&lt;/font&gt;&lt;br style=&quot;font-size: 22px;&quot;&gt;&lt;/div&gt;" style="text;html=1;strokeColor=none;fillColor=none;align=left;verticalAlign=middle;whiteSpace=wrap;rounded=0;fontSize=22;fontStyle=1;fontColor=#FFFFFF;" vertex="1" parent="1">
          <mxGeometry x="440" width="320" height="90" as="geometry" />
        </mxCell>
        <mxCell id="XMLDcqwSQ4G91imM18Sd-21" value="" style="rounded=0;whiteSpace=wrap;html=1;fillColor=#f5f5f5;labelBackgroundColor=none;fontColor=#333333;strokeColor=#666666;" vertex="1" parent="1">
          <mxGeometry x="440" width="320" height="390" as="geometry" />
        </mxCell>
        <mxCell id="XMLDcqwSQ4G91imM18Sd-22" value="&lt;div style=&quot;font-size: 22px;&quot;&gt;&lt;font style=&quot;font-size: 22px;&quot;&gt;&lt;span style=&quot;font-size: 22px;&quot;&gt;&lt;u&gt;&amp;nbsp;Maria Montessori&amp;nbsp;&amp;nbsp;&amp;nbsp;&amp;nbsp;&amp;nbsp;&amp;nbsp;&amp;nbsp;&amp;nbsp;&amp;nbsp; &lt;/u&gt;_&lt;br&gt;&amp;nbsp;Gesamtschule Aachen&lt;/span&gt;&lt;/font&gt;&lt;br style=&quot;font-size: 22px;&quot;&gt;&lt;/div&gt;" style="text;html=1;strokeColor=default;fillColor=#9AC7BF;align=left;verticalAlign=middle;whiteSpace=wrap;rounded=0;fontSize=22;fontStyle=1;fontColor=#FFFFFF;" vertex="1" parent="1">
          <mxGeometry x="440" width="320" height="80" as="geometry" />
        </mxCell>
        <mxCell id="XMLDcqwSQ4G91imM18Sd-29" value="User Page" style="text;html=1;strokeColor=none;fillColor=none;align=left;verticalAlign=middle;whiteSpace=wrap;rounded=0;fontStyle=3;fontSize=14;" vertex="1" parent="1">
          <mxGeometry x="760" width="80" height="30" as="geometry" />
        </mxCell>
        <mxCell id="XMLDcqwSQ4G91imM18Sd-36" value="Sport" style="rounded=1;whiteSpace=wrap;html=1;fillColor=#D3DBE6;" vertex="1" parent="1">
          <mxGeometry x="640" y="156" width="70" height="30" as="geometry" />
        </mxCell>
        <mxCell id="XMLDcqwSQ4G91imM18Sd-35" value="Englisch" style="rounded=1;whiteSpace=wrap;html=1;fillColor=#D3DBE6;" vertex="1" parent="1">
          <mxGeometry x="577" y="156" width="70" height="30" as="geometry" />
        </mxCell>
        <mxCell id="XMLDcqwSQ4G91imM18Sd-34" value="Deutsch" style="rounded=1;whiteSpace=wrap;html=1;fillColor=#D3DBE6;" vertex="1" parent="1">
          <mxGeometry x="516" y="156" width="70" height="30" as="geometry" />
        </mxCell>
        <mxCell id="XMLDcqwSQ4G91imM18Sd-32" value="Mathe" style="rounded=1;whiteSpace=wrap;html=1;fillColor=#dae8fc;strokeColor=#6c8ebf;shadow=1;" vertex="1" parent="1">
          <mxGeometry x="450" y="155" width="70" height="30" as="geometry" />
        </mxCell>
        <mxCell id="XMLDcqwSQ4G91imM18Sd-33" value="" style="whiteSpace=wrap;html=1;fillColor=#dae8fc;strokeColor=#6C8EBF;shadow=1;" vertex="1" parent="1">
          <mxGeometry x="450" y="184" width="300" height="190" as="geometry" />
        </mxCell>
        <mxCell id="XMLDcqwSQ4G91imM18Sd-37" value="&lt;div&gt;Troy Bolton&lt;/div&gt;" style="text;html=1;strokeColor=none;fillColor=none;align=left;verticalAlign=top;whiteSpace=wrap;rounded=0;fontStyle=1;fontSize=18;fontColor=#CC6600;" vertex="1" parent="1">
          <mxGeometry x="450" y="90" width="290" height="30" as="geometry" />
        </mxCell>
        <mxCell id="XMLDcqwSQ4G91imM18Sd-39" value="Klasse 10b" style="text;html=1;strokeColor=none;fillColor=none;align=left;verticalAlign=top;whiteSpace=wrap;rounded=0;fontStyle=0;fontSize=16;fontColor=#A86F3D;" vertex="1" parent="1">
          <mxGeometry x="450" y="120" width="290" height="30" as="geometry" />
        </mxCell>
        <mxCell id="XMLDcqwSQ4G91imM18Sd-40" value="Durchschnittsnote:" style="text;html=1;strokeColor=none;fillColor=none;align=center;verticalAlign=middle;whiteSpace=wrap;rounded=0;fontSize=14;fontStyle=4" vertex="1" parent="1">
          <mxGeometry x="460" y="200" width="130" height="30" as="geometry" />
        </mxCell>
        <mxCell id="XMLDcqwSQ4G91imM18Sd-42" value="3+" style="text;html=1;strokeColor=none;fillColor=none;align=center;verticalAlign=middle;whiteSpace=wrap;rounded=0;fontSize=14;fontStyle=4" vertex="1" parent="1">
          <mxGeometry x="670" y="200" width="60" height="30" as="geometry" />
        </mxCell>
        <mxCell id="XMLDcqwSQ4G91imM18Sd-43" value="Erste Klassenarbeit" style="text;html=1;strokeColor=none;fillColor=none;align=left;verticalAlign=middle;whiteSpace=wrap;rounded=0;" vertex="1" parent="1">
          <mxGeometry x="470" y="230" width="120" height="30" as="geometry" />
        </mxCell>
        <mxCell id="XMLDcqwSQ4G91imM18Sd-44" value="3" style="text;html=1;strokeColor=none;fillColor=none;align=right;verticalAlign=middle;whiteSpace=wrap;rounded=0;" vertex="1" parent="1">
          <mxGeometry x="660" y="230" width="50" height="30" as="geometry" />
        </mxCell>
        <mxCell id="XMLDcqwSQ4G91imM18Sd-45" value="Zweite Klassenarneit" style="text;html=1;strokeColor=none;fillColor=none;align=left;verticalAlign=middle;whiteSpace=wrap;rounded=0;" vertex="1" parent="1">
          <mxGeometry x="470" y="260" width="120" height="30" as="geometry" />
        </mxCell>
        <mxCell id="XMLDcqwSQ4G91imM18Sd-46" value="3+" style="text;html=1;strokeColor=none;fillColor=none;align=right;verticalAlign=middle;whiteSpace=wrap;rounded=0;" vertex="1" parent="1">
          <mxGeometry x="660" y="260" width="50" height="30" as="geometry" />
        </mxCell>
        <mxCell id="XMLDcqwSQ4G91imM18Sd-47" value="Dritte Klassenarneit" style="text;html=1;strokeColor=none;fillColor=none;align=left;verticalAlign=middle;whiteSpace=wrap;rounded=0;" vertex="1" parent="1">
          <mxGeometry x="470" y="290" width="120" height="30" as="geometry" />
        </mxCell>
        <mxCell id="XMLDcqwSQ4G91imM18Sd-48" value="2â€’" style="text;html=1;strokeColor=none;fillColor=none;align=right;verticalAlign=middle;whiteSpace=wrap;rounded=0;" vertex="1" parent="1">
          <mxGeometry x="660" y="290" width="50" height="30" as="geometry" />
        </mxCell>
        <mxCell id="XMLDcqwSQ4G91imM18Sd-49" value="&lt;div style=&quot;font-size: 22px;&quot;&gt;&lt;font style=&quot;font-size: 22px;&quot;&gt;&lt;span style=&quot;font-size: 22px;&quot;&gt;&lt;u&gt;Maria Montessori&lt;/u&gt;_____&lt;br&gt;Gesamtschule Aachen&lt;/span&gt;&lt;/font&gt;&lt;br style=&quot;font-size: 22px;&quot;&gt;&lt;/div&gt;" style="text;html=1;strokeColor=none;fillColor=none;align=left;verticalAlign=middle;whiteSpace=wrap;rounded=0;fontSize=22;fontStyle=1;fontColor=#FFFFFF;" vertex="1" parent="1">
          <mxGeometry y="410" width="320" height="90" as="geometry" />
        </mxCell>
        <mxCell id="XMLDcqwSQ4G91imM18Sd-50" value="" style="rounded=0;whiteSpace=wrap;html=1;fillColor=#f5f5f5;labelBackgroundColor=none;fontColor=#333333;strokeColor=#666666;" vertex="1" parent="1">
          <mxGeometry y="410" width="320" height="420" as="geometry" />
        </mxCell>
        <mxCell id="XMLDcqwSQ4G91imM18Sd-51" value="&lt;div style=&quot;font-size: 22px;&quot;&gt;&lt;font style=&quot;font-size: 22px;&quot;&gt;&lt;span style=&quot;font-size: 22px;&quot;&gt;&lt;u&gt;&amp;nbsp;Maria Montessori&amp;nbsp;&amp;nbsp;&amp;nbsp;&amp;nbsp;&amp;nbsp;&amp;nbsp;&amp;nbsp;&amp;nbsp;&amp;nbsp; &lt;/u&gt;_&lt;br&gt;&amp;nbsp;Gesamtschule Aachen&lt;/span&gt;&lt;/font&gt;&lt;br style=&quot;font-size: 22px;&quot;&gt;&lt;/div&gt;" style="text;html=1;strokeColor=default;fillColor=#9AC7BF;align=left;verticalAlign=middle;whiteSpace=wrap;rounded=0;fontSize=22;fontStyle=1;fontColor=#FFFFFF;" vertex="1" parent="1">
          <mxGeometry y="410" width="320" height="80" as="geometry" />
        </mxCell>
        <mxCell id="XMLDcqwSQ4G91imM18Sd-52" value="Teacher Page" style="text;html=1;strokeColor=none;fillColor=none;align=left;verticalAlign=middle;whiteSpace=wrap;rounded=0;fontStyle=3;fontSize=14;" vertex="1" parent="1">
          <mxGeometry x="330" y="410" width="100" height="30" as="geometry" />
        </mxCell>
        <mxCell id="XMLDcqwSQ4G91imM18Sd-53" value="13" style="rounded=1;whiteSpace=wrap;html=1;fillColor=#D3DBE6;" vertex="1" parent="1">
          <mxGeometry x="200" y="566" width="70" height="30" as="geometry" />
        </mxCell>
        <mxCell id="XMLDcqwSQ4G91imM18Sd-54" value="10b" style="rounded=1;whiteSpace=wrap;html=1;fillColor=#D3DBE6;" vertex="1" parent="1">
          <mxGeometry x="137" y="566" width="70" height="30" as="geometry" />
        </mxCell>
        <mxCell id="XMLDcqwSQ4G91imM18Sd-55" value="7c" style="rounded=1;whiteSpace=wrap;html=1;fillColor=#D3DBE6;" vertex="1" parent="1">
          <mxGeometry x="76" y="566" width="70" height="30" as="geometry" />
        </mxCell>
        <mxCell id="XMLDcqwSQ4G91imM18Sd-56" value="6a" style="rounded=1;whiteSpace=wrap;html=1;fillColor=#dae8fc;strokeColor=#6c8ebf;shadow=1;" vertex="1" parent="1">
          <mxGeometry x="10" y="565" width="70" height="30" as="geometry" />
        </mxCell>
        <mxCell id="XMLDcqwSQ4G91imM18Sd-57" value="" style="whiteSpace=wrap;html=1;fillColor=#dae8fc;strokeColor=#6C8EBF;shadow=1;" vertex="1" parent="1">
          <mxGeometry x="10" y="594" width="300" height="216" as="geometry" />
        </mxCell>
        <mxCell id="XMLDcqwSQ4G91imM18Sd-58" value="Fr. Darbus" style="text;html=1;strokeColor=none;fillColor=none;align=left;verticalAlign=top;whiteSpace=wrap;rounded=0;fontStyle=1;fontSize=18;fontColor=#CC6600;" vertex="1" parent="1">
          <mxGeometry x="10" y="500" width="290" height="30" as="geometry" />
        </mxCell>
        <mxCell id="XMLDcqwSQ4G91imM18Sd-59" value="Musik, Kunst" style="text;html=1;strokeColor=none;fillColor=none;align=left;verticalAlign=top;whiteSpace=wrap;rounded=0;fontStyle=0;fontSize=16;fontColor=#A86F3D;" vertex="1" parent="1">
          <mxGeometry x="10" y="530" width="290" height="30" as="geometry" />
        </mxCell>
        <mxCell id="XMLDcqwSQ4G91imM18Sd-60" value="Musik" style="text;html=1;strokeColor=none;fillColor=none;align=left;verticalAlign=middle;whiteSpace=wrap;rounded=0;fontSize=14;fontStyle=4" vertex="1" parent="1">
          <mxGeometry x="20" y="610" width="130" height="30" as="geometry" />
        </mxCell>
        <mxCell id="XMLDcqwSQ4G91imM18Sd-62" value="Erstes Halbjahr" style="text;html=1;align=center;verticalAlign=middle;whiteSpace=wrap;rounded=0;fillColor=#E6E6E6;strokeColor=default;shadow=1;" vertex="1" parent="1">
          <mxGeometry x="30" y="640" width="260" height="30" as="geometry" />
        </mxCell>
        <mxCell id="XMLDcqwSQ4G91imM18Sd-64" value="Zweites Halbjahr" style="text;html=1;strokeColor=default;fillColor=default;align=center;verticalAlign=middle;whiteSpace=wrap;rounded=0;shadow=1;" vertex="1" parent="1">
          <mxGeometry x="30" y="674" width="260" height="30" as="geometry" />
        </mxCell>
        <mxCell id="XMLDcqwSQ4G91imM18Sd-68" value="Kunst" style="text;html=1;strokeColor=none;fillColor=none;align=left;verticalAlign=middle;whiteSpace=wrap;rounded=0;fontSize=14;fontStyle=4" vertex="1" parent="1">
          <mxGeometry x="20" y="706" width="130" height="30" as="geometry" />
        </mxCell>
        <mxCell id="XMLDcqwSQ4G91imM18Sd-69" value="Erstes Halbjahr" style="text;html=1;align=center;verticalAlign=middle;whiteSpace=wrap;rounded=0;fillColor=default;strokeColor=default;shadow=1;" vertex="1" parent="1">
          <mxGeometry x="30" y="736" width="260" height="30" as="geometry" />
        </mxCell>
        <mxCell id="XMLDcqwSQ4G91imM18Sd-70" value="Zweites Halbjahr" style="text;html=1;strokeColor=default;fillColor=default;align=center;verticalAlign=middle;whiteSpace=wrap;rounded=0;shadow=1;" vertex="1" parent="1">
          <mxGeometry x="30" y="770" width="260" height="30" as="geometry" />
        </mxCell>
        <mxCell id="XMLDcqwSQ4G91imM18Sd-71" value="" style="triangle;whiteSpace=wrap;html=1;" vertex="1" parent="1">
          <mxGeometry x="340" y="596" width="60" height="80" as="geometry" />
        </mxCell>
        <mxCell id="XMLDcqwSQ4G91imM18Sd-89" value="&lt;div style=&quot;font-size: 22px;&quot;&gt;&lt;font style=&quot;font-size: 22px;&quot;&gt;&lt;span style=&quot;font-size: 22px;&quot;&gt;&lt;u&gt;Maria Montessori&lt;/u&gt;_____&lt;br&gt;Gesamtschule Aachen&lt;/span&gt;&lt;/font&gt;&lt;br style=&quot;font-size: 22px;&quot;&gt;&lt;/div&gt;" style="text;html=1;strokeColor=none;fillColor=none;align=left;verticalAlign=middle;whiteSpace=wrap;rounded=0;fontSize=22;fontStyle=1;fontColor=#FFFFFF;" vertex="1" parent="1">
          <mxGeometry x="440" y="410" width="320" height="90" as="geometry" />
        </mxCell>
        <mxCell id="XMLDcqwSQ4G91imM18Sd-90" value="" style="rounded=0;whiteSpace=wrap;html=1;fillColor=#f5f5f5;labelBackgroundColor=none;fontColor=#333333;strokeColor=#666666;" vertex="1" parent="1">
          <mxGeometry x="440" y="410" width="320" height="420" as="geometry" />
        </mxCell>
        <mxCell id="XMLDcqwSQ4G91imM18Sd-91" value="&lt;div style=&quot;font-size: 22px;&quot;&gt;&lt;font style=&quot;font-size: 22px;&quot;&gt;&lt;span style=&quot;font-size: 22px;&quot;&gt;&lt;u&gt;&amp;nbsp;Maria Montessori&amp;nbsp;&amp;nbsp;&amp;nbsp;&amp;nbsp;&amp;nbsp;&amp;nbsp;&amp;nbsp;&amp;nbsp;&amp;nbsp; &lt;/u&gt;_&lt;br&gt;&amp;nbsp;Gesamtschule Aachen&lt;/span&gt;&lt;/font&gt;&lt;br style=&quot;font-size: 22px;&quot;&gt;&lt;/div&gt;" style="text;html=1;strokeColor=default;fillColor=#9AC7BF;align=left;verticalAlign=middle;whiteSpace=wrap;rounded=0;fontSize=22;fontStyle=1;fontColor=#FFFFFF;" vertex="1" parent="1">
          <mxGeometry x="440" y="410" width="320" height="80" as="geometry" />
        </mxCell>
        <mxCell id="XMLDcqwSQ4G91imM18Sd-92" value="13" style="rounded=1;whiteSpace=wrap;html=1;fillColor=#D3DBE6;" vertex="1" parent="1">
          <mxGeometry x="640" y="566" width="70" height="30" as="geometry" />
        </mxCell>
        <mxCell id="XMLDcqwSQ4G91imM18Sd-93" value="10b" style="rounded=1;whiteSpace=wrap;html=1;fillColor=#D3DBE6;" vertex="1" parent="1">
          <mxGeometry x="577" y="566" width="70" height="30" as="geometry" />
        </mxCell>
        <mxCell id="XMLDcqwSQ4G91imM18Sd-94" value="7c" style="rounded=1;whiteSpace=wrap;html=1;fillColor=#D3DBE6;" vertex="1" parent="1">
          <mxGeometry x="516" y="566" width="70" height="30" as="geometry" />
        </mxCell>
        <mxCell id="XMLDcqwSQ4G91imM18Sd-95" value="6a" style="rounded=1;whiteSpace=wrap;html=1;fillColor=#dae8fc;strokeColor=#6c8ebf;shadow=1;" vertex="1" parent="1">
          <mxGeometry x="450" y="565" width="70" height="30" as="geometry" />
        </mxCell>
        <mxCell id="XMLDcqwSQ4G91imM18Sd-96" value="" style="whiteSpace=wrap;html=1;fillColor=#dae8fc;strokeColor=#6C8EBF;shadow=1;" vertex="1" parent="1">
          <mxGeometry x="450" y="594" width="300" height="216" as="geometry" />
        </mxCell>
        <mxCell id="XMLDcqwSQ4G91imM18Sd-97" value="Fr. Darbus" style="text;html=1;strokeColor=none;fillColor=none;align=left;verticalAlign=top;whiteSpace=wrap;rounded=0;fontStyle=1;fontSize=18;fontColor=#CC6600;" vertex="1" parent="1">
          <mxGeometry x="450" y="500" width="290" height="30" as="geometry" />
        </mxCell>
        <mxCell id="XMLDcqwSQ4G91imM18Sd-98" value="Musik, Kunst" style="text;html=1;strokeColor=none;fillColor=none;align=left;verticalAlign=top;whiteSpace=wrap;rounded=0;fontStyle=0;fontSize=16;fontColor=#A86F3D;" vertex="1" parent="1">
          <mxGeometry x="450" y="530" width="290" height="30" as="geometry" />
        </mxCell>
        <mxCell id="XMLDcqwSQ4G91imM18Sd-99" value="Musik" style="text;html=1;strokeColor=none;fillColor=none;align=left;verticalAlign=middle;whiteSpace=wrap;rounded=0;fontSize=14;fontStyle=4" vertex="1" parent="1">
          <mxGeometry x="460" y="610" width="130" height="30" as="geometry" />
        </mxCell>
        <mxCell id="XMLDcqwSQ4G91imM18Sd-100" value="Erstes Halbjahr" style="text;html=1;align=center;verticalAlign=middle;whiteSpace=wrap;rounded=0;fillColor=default;strokeColor=default;shadow=1;" vertex="1" parent="1">
          <mxGeometry x="610" y="610" width="130" height="30" as="geometry" />
        </mxCell>
        <mxCell id="XMLDcqwSQ4G91imM18Sd-105" value="" style="shape=flexArrow;endArrow=classic;html=1;rounded=0;endWidth=7.555555555555556;endSize=7.233333333333333;width=4.333333333333333;fillColor=#4D4D4D;strokeColor=#E6E6E6;" edge="1" parent="1">
          <mxGeometry width="50" height="50" relative="1" as="geometry">
            <mxPoint x="290" y="685" as="sourcePoint" />
            <mxPoint x="270" y="655" as="targetPoint" />
          </mxGeometry>
        </mxCell>
        <mxCell id="XMLDcqwSQ4G91imM18Sd-106" value="&lt;ul&gt;&lt;li&gt;Aaron A. Aaronson&amp;nbsp;&amp;nbsp;&amp;nbsp;&amp;nbsp;&amp;nbsp;&amp;nbsp;&amp;nbsp;&amp;nbsp;&amp;nbsp;&amp;nbsp;&amp;nbsp;&amp;nbsp;&amp;nbsp;&amp;nbsp;&amp;nbsp;&amp;nbsp;&amp;nbsp;&amp;nbsp;&amp;nbsp;&amp;nbsp;&amp;nbsp;&amp;nbsp;&amp;nbsp;&amp;nbsp;&amp;nbsp;&amp;nbsp; 3-&lt;br&gt;&lt;/li&gt;&lt;li&gt;Nicholas Angel&amp;nbsp;&amp;nbsp;&amp;nbsp;&amp;nbsp;&amp;nbsp;&amp;nbsp;&amp;nbsp;&amp;nbsp;&amp;nbsp;&amp;nbsp;&amp;nbsp;&amp;nbsp;&amp;nbsp;&amp;nbsp;&amp;nbsp;&amp;nbsp;&amp;nbsp;&amp;nbsp;&amp;nbsp;&amp;nbsp;&amp;nbsp;&amp;nbsp;&amp;nbsp;&amp;nbsp;&amp;nbsp;&amp;nbsp;&amp;nbsp;&amp;nbsp;&amp;nbsp;&amp;nbsp;&amp;nbsp;&amp;nbsp; 1&lt;br&gt;&lt;/li&gt;&lt;li&gt;Danny Butterman&amp;nbsp;&amp;nbsp;&amp;nbsp;&amp;nbsp;&amp;nbsp;&amp;nbsp;&amp;nbsp;&amp;nbsp;&amp;nbsp;&amp;nbsp;&amp;nbsp;&amp;nbsp;&amp;nbsp;&amp;nbsp;&amp;nbsp;&amp;nbsp;&amp;nbsp;&amp;nbsp;&amp;nbsp;&amp;nbsp;&amp;nbsp;&amp;nbsp;&amp;nbsp;&amp;nbsp;&amp;nbsp;&amp;nbsp;&amp;nbsp;&amp;nbsp; 4&lt;br&gt;&lt;/li&gt;&lt;ul&gt;&lt;li&gt;&amp;nbsp;&lt;br&gt;&lt;/li&gt;&lt;li&gt;&amp;nbsp;&lt;br&gt;&lt;/li&gt;&lt;li&gt;&amp;nbsp;&lt;br&gt;&lt;/li&gt;&lt;/ul&gt;&lt;/ul&gt;" style="rounded=0;whiteSpace=wrap;html=1;align=left;" vertex="1" parent="1">
          <mxGeometry x="457" y="654" width="283" height="146" as="geometry" />
        </mxCell>
        <mxCell id="XMLDcqwSQ4G91imM18Sd-125" value="&lt;div style=&quot;font-size: 22px;&quot;&gt;&lt;font style=&quot;font-size: 22px;&quot;&gt;&lt;span style=&quot;font-size: 22px;&quot;&gt;&lt;u&gt;Maria Montessori&lt;/u&gt;_____&lt;br&gt;Gesamtschule Aachen&lt;/span&gt;&lt;/font&gt;&lt;br style=&quot;font-size: 22px;&quot;&gt;&lt;/div&gt;" style="text;html=1;strokeColor=none;fillColor=none;align=left;verticalAlign=middle;whiteSpace=wrap;rounded=0;fontSize=22;fontStyle=1;fontColor=#FFFFFF;" vertex="1" parent="1">
          <mxGeometry y="1340" width="320" height="90" as="geometry" />
        </mxCell>
        <mxCell id="XMLDcqwSQ4G91imM18Sd-126" value="" style="rounded=0;whiteSpace=wrap;html=1;fillColor=#f5f5f5;labelBackgroundColor=none;fontColor=#333333;strokeColor=#666666;" vertex="1" parent="1">
          <mxGeometry y="1340" width="450" height="420" as="geometry" />
        </mxCell>
        <mxCell id="XMLDcqwSQ4G91imM18Sd-127" value="&lt;div style=&quot;font-size: 22px;&quot;&gt;&lt;font style=&quot;font-size: 22px;&quot;&gt;&lt;span style=&quot;font-size: 22px;&quot;&gt;&lt;u&gt;&amp;nbsp;Maria Montessori&amp;nbsp;&amp;nbsp;&amp;nbsp;&amp;nbsp;&amp;nbsp;&amp;nbsp;&amp;nbsp;&amp;nbsp;&amp;nbsp; &lt;/u&gt;_&lt;br&gt;&amp;nbsp;Gesamtschule Aachen&lt;/span&gt;&lt;/font&gt;&lt;br style=&quot;font-size: 22px;&quot;&gt;&lt;/div&gt;" style="text;html=1;strokeColor=default;fillColor=#9AC7BF;align=left;verticalAlign=middle;whiteSpace=wrap;rounded=0;fontSize=22;fontStyle=1;fontColor=#FFFFFF;" vertex="1" parent="1">
          <mxGeometry y="1340" width="450" height="80" as="geometry" />
        </mxCell>
        <mxCell id="XMLDcqwSQ4G91imM18Sd-128" value="Admin Page" style="text;html=1;strokeColor=none;fillColor=none;align=left;verticalAlign=middle;whiteSpace=wrap;rounded=0;fontStyle=3;fontSize=14;" vertex="1" parent="1">
          <mxGeometry x="450" y="1340" width="100" height="30" as="geometry" />
        </mxCell>
        <mxCell id="XMLDcqwSQ4G91imM18Sd-133" value="" style="whiteSpace=wrap;html=1;fillColor=#dae8fc;strokeColor=#6C8EBF;shadow=1;align=left;" vertex="1" parent="1">
          <mxGeometry x="10" y="1490" width="430" height="120" as="geometry" />
        </mxCell>
        <mxCell id="XMLDcqwSQ4G91imM18Sd-134" value="Oguzhan Altinkaya" style="text;html=1;strokeColor=none;fillColor=none;align=left;verticalAlign=top;whiteSpace=wrap;rounded=0;fontStyle=1;fontSize=18;fontColor=#CC6600;" vertex="1" parent="1">
          <mxGeometry x="10" y="1430" width="290" height="30" as="geometry" />
        </mxCell>
        <mxCell id="XMLDcqwSQ4G91imM18Sd-135" value="Administrator" style="text;html=1;strokeColor=none;fillColor=none;align=left;verticalAlign=top;whiteSpace=wrap;rounded=0;fontStyle=0;fontSize=16;fontColor=#A86F3D;" vertex="1" parent="1">
          <mxGeometry x="10" y="1460" width="290" height="30" as="geometry" />
        </mxCell>
        <mxCell id="XMLDcqwSQ4G91imM18Sd-145" value="&lt;div&gt;&lt;b&gt;ID&lt;/b&gt;&lt;/div&gt;" style="swimlane;fontStyle=0;childLayout=stackLayout;horizontal=1;startSize=30;horizontalStack=0;resizeParent=1;resizeParentMax=0;resizeLast=0;collapsible=1;marginBottom=0;whiteSpace=wrap;html=1;align=center;" vertex="1" parent="1">
          <mxGeometry x="10" y="1490" width="20" height="120" as="geometry">
            <mxRectangle x="10" y="1010" width="50" height="30" as="alternateBounds" />
          </mxGeometry>
        </mxCell>
        <mxCell id="XMLDcqwSQ4G91imM18Sd-146" value="1" style="text;strokeColor=default;fillColor=none;align=left;verticalAlign=middle;spacingLeft=4;spacingRight=4;overflow=hidden;points=[[0,0.5],[1,0.5]];portConstraint=eastwest;rotatable=0;whiteSpace=wrap;html=1;" vertex="1" parent="XMLDcqwSQ4G91imM18Sd-145">
          <mxGeometry y="30" width="20" height="30" as="geometry" />
        </mxCell>
        <mxCell id="XMLDcqwSQ4G91imM18Sd-147" value="2" style="text;strokeColor=none;fillColor=none;align=left;verticalAlign=middle;spacingLeft=4;spacingRight=4;overflow=hidden;points=[[0,0.5],[1,0.5]];portConstraint=eastwest;rotatable=0;whiteSpace=wrap;html=1;" vertex="1" parent="XMLDcqwSQ4G91imM18Sd-145">
          <mxGeometry y="60" width="20" height="30" as="geometry" />
        </mxCell>
        <mxCell id="XMLDcqwSQ4G91imM18Sd-148" value="3" style="text;strokeColor=default;fillColor=none;align=left;verticalAlign=middle;spacingLeft=4;spacingRight=4;overflow=hidden;points=[[0,0.5],[1,0.5]];portConstraint=eastwest;rotatable=0;whiteSpace=wrap;html=1;" vertex="1" parent="XMLDcqwSQ4G91imM18Sd-145">
          <mxGeometry y="90" width="20" height="30" as="geometry" />
        </mxCell>
        <mxCell id="XMLDcqwSQ4G91imM18Sd-149" value="&lt;b&gt;Vorname&lt;/b&gt;" style="swimlane;fontStyle=0;childLayout=stackLayout;horizontal=1;startSize=30;horizontalStack=0;resizeParent=1;resizeParentMax=0;resizeLast=0;collapsible=1;marginBottom=0;whiteSpace=wrap;html=1;align=center;" vertex="1" parent="1">
          <mxGeometry x="30" y="1490" width="60" height="120" as="geometry" />
        </mxCell>
        <mxCell id="XMLDcqwSQ4G91imM18Sd-150" value="Troy" style="text;strokeColor=default;fillColor=none;align=left;verticalAlign=middle;spacingLeft=4;spacingRight=4;overflow=hidden;points=[[0,0.5],[1,0.5]];portConstraint=eastwest;rotatable=0;whiteSpace=wrap;html=1;" vertex="1" parent="XMLDcqwSQ4G91imM18Sd-149">
          <mxGeometry y="30" width="60" height="30" as="geometry" />
        </mxCell>
        <mxCell id="XMLDcqwSQ4G91imM18Sd-151" value="Karin" style="text;strokeColor=none;fillColor=none;align=left;verticalAlign=middle;spacingLeft=4;spacingRight=4;overflow=hidden;points=[[0,0.5],[1,0.5]];portConstraint=eastwest;rotatable=0;whiteSpace=wrap;html=1;" vertex="1" parent="XMLDcqwSQ4G91imM18Sd-149">
          <mxGeometry y="60" width="60" height="30" as="geometry" />
        </mxCell>
        <mxCell id="XMLDcqwSQ4G91imM18Sd-152" value="Oguzhan&lt;span style=&quot;white-space: pre;&quot;&gt;&#x9;&lt;/span&gt;" style="text;strokeColor=default;fillColor=none;align=left;verticalAlign=middle;spacingLeft=4;spacingRight=4;overflow=hidden;points=[[0,0.5],[1,0.5]];portConstraint=eastwest;rotatable=0;whiteSpace=wrap;html=1;" vertex="1" parent="XMLDcqwSQ4G91imM18Sd-149">
          <mxGeometry y="90" width="60" height="30" as="geometry" />
        </mxCell>
        <mxCell id="XMLDcqwSQ4G91imM18Sd-153" value="&lt;b&gt;Nachname&lt;/b&gt;" style="swimlane;fontStyle=0;childLayout=stackLayout;horizontal=1;startSize=30;horizontalStack=0;resizeParent=1;resizeParentMax=0;resizeLast=0;collapsible=1;marginBottom=0;whiteSpace=wrap;html=1;align=center;" vertex="1" parent="1">
          <mxGeometry x="90" y="1490" width="80" height="120" as="geometry" />
        </mxCell>
        <mxCell id="XMLDcqwSQ4G91imM18Sd-154" value="Baker" style="text;strokeColor=default;fillColor=none;align=left;verticalAlign=middle;spacingLeft=4;spacingRight=4;overflow=hidden;points=[[0,0.5],[1,0.5]];portConstraint=eastwest;rotatable=0;whiteSpace=wrap;html=1;" vertex="1" parent="XMLDcqwSQ4G91imM18Sd-153">
          <mxGeometry y="30" width="80" height="30" as="geometry" />
        </mxCell>
        <mxCell id="XMLDcqwSQ4G91imM18Sd-155" value="Darbus" style="text;strokeColor=none;fillColor=none;align=left;verticalAlign=middle;spacingLeft=4;spacingRight=4;overflow=hidden;points=[[0,0.5],[1,0.5]];portConstraint=eastwest;rotatable=0;whiteSpace=wrap;html=1;" vertex="1" parent="XMLDcqwSQ4G91imM18Sd-153">
          <mxGeometry y="60" width="80" height="30" as="geometry" />
        </mxCell>
        <mxCell id="XMLDcqwSQ4G91imM18Sd-156" value="Altinkaya" style="text;strokeColor=default;fillColor=none;align=left;verticalAlign=middle;spacingLeft=4;spacingRight=4;overflow=hidden;points=[[0,0.5],[1,0.5]];portConstraint=eastwest;rotatable=0;whiteSpace=wrap;html=1;" vertex="1" parent="XMLDcqwSQ4G91imM18Sd-153">
          <mxGeometry y="90" width="80" height="30" as="geometry" />
        </mxCell>
        <mxCell id="XMLDcqwSQ4G91imM18Sd-157" value="&lt;b&gt;Lehrer:in&lt;/b&gt;" style="swimlane;fontStyle=0;childLayout=stackLayout;horizontal=1;startSize=30;horizontalStack=0;resizeParent=1;resizeParentMax=0;resizeLast=0;collapsible=1;marginBottom=0;whiteSpace=wrap;html=1;align=center;" vertex="1" parent="1">
          <mxGeometry x="300" y="1490" width="70" height="120" as="geometry" />
        </mxCell>
        <mxCell id="XMLDcqwSQ4G91imM18Sd-158" value="False" style="text;strokeColor=default;fillColor=none;align=left;verticalAlign=middle;spacingLeft=4;spacingRight=4;overflow=hidden;points=[[0,0.5],[1,0.5]];portConstraint=eastwest;rotatable=0;whiteSpace=wrap;html=1;" vertex="1" parent="XMLDcqwSQ4G91imM18Sd-157">
          <mxGeometry y="30" width="70" height="30" as="geometry" />
        </mxCell>
        <mxCell id="XMLDcqwSQ4G91imM18Sd-159" value="True" style="text;strokeColor=none;fillColor=none;align=left;verticalAlign=middle;spacingLeft=4;spacingRight=4;overflow=hidden;points=[[0,0.5],[1,0.5]];portConstraint=eastwest;rotatable=0;whiteSpace=wrap;html=1;" vertex="1" parent="XMLDcqwSQ4G91imM18Sd-157">
          <mxGeometry y="60" width="70" height="30" as="geometry" />
        </mxCell>
        <mxCell id="XMLDcqwSQ4G91imM18Sd-160" value="True" style="text;strokeColor=default;fillColor=none;align=left;verticalAlign=middle;spacingLeft=4;spacingRight=4;overflow=hidden;points=[[0,0.5],[1,0.5]];portConstraint=eastwest;rotatable=0;whiteSpace=wrap;html=1;" vertex="1" parent="XMLDcqwSQ4G91imM18Sd-157">
          <mxGeometry y="90" width="70" height="30" as="geometry" />
        </mxCell>
        <mxCell id="XMLDcqwSQ4G91imM18Sd-161" value="&lt;b&gt;Admin&lt;/b&gt;" style="swimlane;fontStyle=0;childLayout=stackLayout;horizontal=1;startSize=30;horizontalStack=0;resizeParent=1;resizeParentMax=0;resizeLast=0;collapsible=1;marginBottom=0;whiteSpace=wrap;html=1;align=center;" vertex="1" parent="1">
          <mxGeometry x="370" y="1490" width="70" height="120" as="geometry" />
        </mxCell>
        <mxCell id="XMLDcqwSQ4G91imM18Sd-162" value="False" style="text;strokeColor=default;fillColor=none;align=left;verticalAlign=middle;spacingLeft=4;spacingRight=4;overflow=hidden;points=[[0,0.5],[1,0.5]];portConstraint=eastwest;rotatable=0;whiteSpace=wrap;html=1;" vertex="1" parent="XMLDcqwSQ4G91imM18Sd-161">
          <mxGeometry y="30" width="70" height="30" as="geometry" />
        </mxCell>
        <mxCell id="XMLDcqwSQ4G91imM18Sd-163" value="False" style="text;strokeColor=none;fillColor=none;align=left;verticalAlign=middle;spacingLeft=4;spacingRight=4;overflow=hidden;points=[[0,0.5],[1,0.5]];portConstraint=eastwest;rotatable=0;whiteSpace=wrap;html=1;" vertex="1" parent="XMLDcqwSQ4G91imM18Sd-161">
          <mxGeometry y="60" width="70" height="30" as="geometry" />
        </mxCell>
        <mxCell id="XMLDcqwSQ4G91imM18Sd-164" value="True" style="text;strokeColor=default;fillColor=none;align=left;verticalAlign=middle;spacingLeft=4;spacingRight=4;overflow=hidden;points=[[0,0.5],[1,0.5]];portConstraint=eastwest;rotatable=0;whiteSpace=wrap;html=1;" vertex="1" parent="XMLDcqwSQ4G91imM18Sd-161">
          <mxGeometry y="90" width="70" height="30" as="geometry" />
        </mxCell>
        <mxCell id="XMLDcqwSQ4G91imM18Sd-165" value="" style="whiteSpace=wrap;html=1;fillColor=#dae8fc;strokeColor=#6C8EBF;shadow=1;align=left;" vertex="1" parent="1">
          <mxGeometry x="10" y="1630" width="300" height="120" as="geometry" />
        </mxCell>
        <mxCell id="XMLDcqwSQ4G91imM18Sd-168" value="Neue:r Benutzer:in " style="text;html=1;strokeColor=none;fillColor=none;align=left;verticalAlign=middle;whiteSpace=wrap;rounded=0;fontStyle=5" vertex="1" parent="1">
          <mxGeometry x="16" y="1640" width="130" height="30" as="geometry" />
        </mxCell>
        <mxCell id="XMLDcqwSQ4G91imM18Sd-169" value="Noten eintragen" style="text;html=1;align=center;verticalAlign=middle;whiteSpace=wrap;rounded=1;fillColor=#FFFFFF;strokeColor=default;shadow=1;fontStyle=1" vertex="1" parent="1">
          <mxGeometry x="170" y="605" width="130" height="30" as="geometry" />
        </mxCell>
        <mxCell id="XMLDcqwSQ4G91imM18Sd-170" value="Vorname" style="rounded=0;whiteSpace=wrap;html=1;fillColor=none;fontStyle=1;strokeColor=none;" vertex="1" parent="1">
          <mxGeometry x="20" y="1670" width="65" height="20" as="geometry" />
        </mxCell>
        <mxCell id="XMLDcqwSQ4G91imM18Sd-171" value="Nachname" style="rounded=0;whiteSpace=wrap;html=1;fontStyle=1;fillColor=none;strokeColor=none;" vertex="1" parent="1">
          <mxGeometry x="90" y="1670" width="65" height="20" as="geometry" />
        </mxCell>
        <mxCell id="XMLDcqwSQ4G91imM18Sd-172" value="Lehrer:in" style="rounded=0;whiteSpace=wrap;html=1;fillColor=none;fontStyle=1;strokeColor=none;" vertex="1" parent="1">
          <mxGeometry x="160" y="1670" width="65" height="20" as="geometry" />
        </mxCell>
        <mxCell id="XMLDcqwSQ4G91imM18Sd-173" value="Admin" style="rounded=0;whiteSpace=wrap;html=1;fillColor=none;fontStyle=1;strokeColor=none;" vertex="1" parent="1">
          <mxGeometry x="230" y="1670" width="65" height="20" as="geometry" />
        </mxCell>
        <mxCell id="XMLDcqwSQ4G91imM18Sd-174" value="" style="rounded=0;whiteSpace=wrap;html=1;" vertex="1" parent="1">
          <mxGeometry x="16" y="1700" width="69" height="20" as="geometry" />
        </mxCell>
        <mxCell id="XMLDcqwSQ4G91imM18Sd-175" value="" style="rounded=0;whiteSpace=wrap;html=1;" vertex="1" parent="1">
          <mxGeometry x="88" y="1700" width="69" height="20" as="geometry" />
        </mxCell>
        <mxCell id="XMLDcqwSQ4G91imM18Sd-176" value="" style="rounded=0;whiteSpace=wrap;html=1;" vertex="1" parent="1">
          <mxGeometry x="188" y="1705" width="9" height="10" as="geometry" />
        </mxCell>
        <mxCell id="XMLDcqwSQ4G91imM18Sd-177" value="" style="rounded=0;whiteSpace=wrap;html=1;" vertex="1" parent="1">
          <mxGeometry x="258" y="1705" width="9" height="10" as="geometry" />
        </mxCell>
        <mxCell id="XMLDcqwSQ4G91imM18Sd-178" value="Anlegen" style="rounded=1;whiteSpace=wrap;html=1;fontStyle=1;shadow=1;" vertex="1" parent="1">
          <mxGeometry x="235" y="1723" width="70" height="20" as="geometry" />
        </mxCell>
        <mxCell id="XMLDcqwSQ4G91imM18Sd-180" value="&lt;b&gt;Email&lt;/b&gt;" style="swimlane;fontStyle=0;childLayout=stackLayout;horizontal=1;startSize=30;horizontalStack=0;resizeParent=1;resizeParentMax=0;resizeLast=0;collapsible=1;marginBottom=0;whiteSpace=wrap;html=1;align=center;" vertex="1" parent="1">
          <mxGeometry x="170" y="1490" width="130" height="120" as="geometry" />
        </mxCell>
        <mxCell id="XMLDcqwSQ4G91imM18Sd-181" value="cool.troy@gmail.com" style="text;strokeColor=default;fillColor=none;align=left;verticalAlign=middle;spacingLeft=4;spacingRight=4;overflow=hidden;points=[[0,0.5],[1,0.5]];portConstraint=eastwest;rotatable=0;whiteSpace=wrap;html=1;" vertex="1" parent="XMLDcqwSQ4G91imM18Sd-180">
          <mxGeometry y="30" width="130" height="30" as="geometry" />
        </mxCell>
        <mxCell id="XMLDcqwSQ4G91imM18Sd-182" value="darbus@mmge-ac.de" style="text;strokeColor=none;fillColor=none;align=left;verticalAlign=middle;spacingLeft=4;spacingRight=4;overflow=hidden;points=[[0,0.5],[1,0.5]];portConstraint=eastwest;rotatable=0;whiteSpace=wrap;html=1;" vertex="1" parent="XMLDcqwSQ4G91imM18Sd-180">
          <mxGeometry y="60" width="130" height="30" as="geometry" />
        </mxCell>
        <mxCell id="XMLDcqwSQ4G91imM18Sd-183" value="admin@mmge-ac.de" style="text;strokeColor=default;fillColor=none;align=left;verticalAlign=middle;spacingLeft=4;spacingRight=4;overflow=hidden;points=[[0,0.5],[1,0.5]];portConstraint=eastwest;rotatable=0;whiteSpace=wrap;html=1;" vertex="1" parent="XMLDcqwSQ4G91imM18Sd-180">
          <mxGeometry y="90" width="130" height="30" as="geometry" />
        </mxCell>
        <mxCell id="XMLDcqwSQ4G91imM18Sd-196" value="&lt;div style=&quot;font-size: 22px;&quot;&gt;&lt;font style=&quot;font-size: 22px;&quot;&gt;&lt;span style=&quot;font-size: 22px;&quot;&gt;&lt;u&gt;Maria Montessori&lt;/u&gt;_____&lt;br&gt;Gesamtschule Aachen&lt;/span&gt;&lt;/font&gt;&lt;br style=&quot;font-size: 22px;&quot;&gt;&lt;/div&gt;" style="text;html=1;strokeColor=none;fillColor=none;align=left;verticalAlign=middle;whiteSpace=wrap;rounded=0;fontSize=22;fontStyle=1;fontColor=#FFFFFF;" vertex="1" parent="1">
          <mxGeometry y="910" width="320" height="90" as="geometry" />
        </mxCell>
        <mxCell id="XMLDcqwSQ4G91imM18Sd-197" value="&lt;div style=&quot;font-size: 22px;&quot;&gt;&lt;font style=&quot;font-size: 22px;&quot;&gt;&lt;span style=&quot;font-size: 22px;&quot;&gt;&lt;u&gt;&amp;nbsp;Maria Montessori&amp;nbsp;&amp;nbsp;&amp;nbsp;&amp;nbsp;&amp;nbsp;&amp;nbsp;&amp;nbsp;&amp;nbsp;&amp;nbsp; &lt;/u&gt;_&lt;br&gt;&amp;nbsp;Gesamtschule Aachen&lt;/span&gt;&lt;/font&gt;&lt;br style=&quot;font-size: 22px;&quot;&gt;&lt;/div&gt;" style="text;html=1;strokeColor=default;fillColor=#9AC7BF;align=left;verticalAlign=middle;whiteSpace=wrap;rounded=0;fontSize=22;fontStyle=1;fontColor=#FFFFFF;" vertex="1" parent="1">
          <mxGeometry y="910" width="320" height="80" as="geometry" />
        </mxCell>
        <mxCell id="XMLDcqwSQ4G91imM18Sd-198" value="13" style="rounded=1;whiteSpace=wrap;html=1;fillColor=#D3DBE6;" vertex="1" parent="1">
          <mxGeometry x="200" y="1066" width="70" height="30" as="geometry" />
        </mxCell>
        <mxCell id="XMLDcqwSQ4G91imM18Sd-199" value="10b" style="rounded=1;whiteSpace=wrap;html=1;fillColor=#D3DBE6;" vertex="1" parent="1">
          <mxGeometry x="137" y="1066" width="70" height="30" as="geometry" />
        </mxCell>
        <mxCell id="XMLDcqwSQ4G91imM18Sd-200" value="7c" style="rounded=1;whiteSpace=wrap;html=1;fillColor=#D3DBE6;" vertex="1" parent="1">
          <mxGeometry x="76" y="1066" width="70" height="30" as="geometry" />
        </mxCell>
        <mxCell id="XMLDcqwSQ4G91imM18Sd-201" value="6a" style="rounded=1;whiteSpace=wrap;html=1;fillColor=#dae8fc;strokeColor=#6c8ebf;shadow=1;" vertex="1" parent="1">
          <mxGeometry x="10" y="1065" width="70" height="30" as="geometry" />
        </mxCell>
        <mxCell id="XMLDcqwSQ4G91imM18Sd-202" value="" style="whiteSpace=wrap;html=1;fillColor=#dae8fc;strokeColor=#6C8EBF;shadow=1;" vertex="1" parent="1">
          <mxGeometry x="10" y="1094" width="300" height="216" as="geometry" />
        </mxCell>
        <mxCell id="XMLDcqwSQ4G91imM18Sd-203" value="Fr. Darbus" style="text;html=1;strokeColor=none;fillColor=none;align=left;verticalAlign=top;whiteSpace=wrap;rounded=0;fontStyle=1;fontSize=18;fontColor=#CC6600;" vertex="1" parent="1">
          <mxGeometry x="10" y="1000" width="290" height="30" as="geometry" />
        </mxCell>
        <mxCell id="XMLDcqwSQ4G91imM18Sd-204" value="Musik, Kunst" style="text;html=1;strokeColor=none;fillColor=none;align=left;verticalAlign=top;whiteSpace=wrap;rounded=0;fontStyle=0;fontSize=16;fontColor=#A86F3D;" vertex="1" parent="1">
          <mxGeometry x="10" y="1030" width="290" height="30" as="geometry" />
        </mxCell>
        <mxCell id="XMLDcqwSQ4G91imM18Sd-208" value="" style="triangle;whiteSpace=wrap;html=1;rotation=90;" vertex="1" parent="1">
          <mxGeometry x="125" y="830" width="60" height="80" as="geometry" />
        </mxCell>
        <mxCell id="XMLDcqwSQ4G91imM18Sd-211" value="Neue Noten" style="text;html=1;strokeColor=none;fillColor=none;align=left;verticalAlign=middle;whiteSpace=wrap;rounded=0;fontStyle=5" vertex="1" parent="1">
          <mxGeometry x="16" y="1110" width="130" height="30" as="geometry" />
        </mxCell>
        <mxCell id="XMLDcqwSQ4G91imM18Sd-212" value="Fach" style="rounded=0;whiteSpace=wrap;html=1;fillColor=none;fontStyle=1;strokeColor=none;" vertex="1" parent="1">
          <mxGeometry x="20" y="1140" width="65" height="20" as="geometry" />
        </mxCell>
        <mxCell id="XMLDcqwSQ4G91imM18Sd-220" value="Eintragen" style="rounded=1;whiteSpace=wrap;html=1;fontStyle=1;shadow=1;" vertex="1" parent="1">
          <mxGeometry x="235" y="1280" width="70" height="20" as="geometry" />
        </mxCell>
        <mxCell id="XMLDcqwSQ4G91imM18Sd-221" value="Bezeichnung" style="rounded=0;whiteSpace=wrap;html=1;fillColor=none;fontStyle=1;strokeColor=none;" vertex="1" parent="1">
          <mxGeometry x="173" y="1140" width="85" height="20" as="geometry" />
        </mxCell>
        <mxCell id="XMLDcqwSQ4G91imM18Sd-222" value="z.B. Erstes Halbjahr" style="rounded=0;whiteSpace=wrap;html=1;fontColor=#666666;" vertex="1" parent="1">
          <mxGeometry x="170" y="1160" width="120" height="20" as="geometry" />
        </mxCell>
        <mxCell id="XMLDcqwSQ4G91imM18Sd-223" value="Fach auswÃ¤hlen" style="rounded=1;fillColor=#F1F2F4;strokeColor=none;html=1;whiteSpace=wrap;fontColor=#000000;align=left;fontSize=12;spacingLeft=10;sketch=0;" vertex="1" parent="1">
          <mxGeometry x="20" y="1161" width="140" height="20" as="geometry" />
        </mxCell>
        <mxCell id="XMLDcqwSQ4G91imM18Sd-224" value="" style="shape=triangle;direction=south;fillColor=#596780;strokeColor=none;html=1;sketch=0;" vertex="1" parent="XMLDcqwSQ4G91imM18Sd-223">
          <mxGeometry x="1" y="0.5" width="12" height="6" relative="1" as="geometry">
            <mxPoint x="-20" y="-3" as="offset" />
          </mxGeometry>
        </mxCell>
        <mxCell id="XMLDcqwSQ4G91imM18Sd-227" value="Aaron A. Aaronson" style="text;html=1;strokeColor=none;fillColor=none;align=left;verticalAlign=middle;whiteSpace=wrap;rounded=0;" vertex="1" parent="1">
          <mxGeometry x="25" y="1200" width="120" height="30" as="geometry" />
        </mxCell>
        <mxCell id="XMLDcqwSQ4G91imM18Sd-228" value="Nicholas Angel" style="text;html=1;strokeColor=none;fillColor=none;align=left;verticalAlign=middle;whiteSpace=wrap;rounded=0;" vertex="1" parent="1">
          <mxGeometry x="25" y="1230" width="120" height="30" as="geometry" />
        </mxCell>
        <mxCell id="XMLDcqwSQ4G91imM18Sd-229" value="" style="rounded=0;whiteSpace=wrap;html=1;" vertex="1" parent="1">
          <mxGeometry x="241" y="1205" width="49" height="20" as="geometry" />
        </mxCell>
        <mxCell id="XMLDcqwSQ4G91imM18Sd-230" value="" style="rounded=0;whiteSpace=wrap;html=1;" vertex="1" parent="1">
          <mxGeometry x="241" y="1235" width="49" height="20" as="geometry" />
        </mxCell>
      </root>
    </mxGraphModel>
  </diagram>
</mxfile>
